<svg t="1762016027440" class="icon" viewBox="0 0 1024 1024" version="1.1" xmlns="http://www.w3.org/2000/svg" p-id="4873" width="200" height="200"><path d="M859.306667 170.666667h-416.853334a128 128 0 0 0-85.333333 33.28l-4.266667 4.693333-256 319.146667a42.666667 42.666667 0 0 0 4.693334 58.453333l256 233.813333a128 128 0 0 0 85.333333 33.28h416.853333A78.506667 78.506667 0 0 0 938.666667 775.68V248.32A78.506667 78.506667 0 0 0 859.306667 170.666667z m-146.346667 396.373333a42.666667 42.666667 0 0 1 0 60.586667 42.666667 42.666667 0 0 1-60.586667 0L597.333333 572.16l-55.04 55.466667a42.666667 42.666667 0 0 1-60.586666 0 42.666667 42.666667 0 0 1 0-60.586667l55.466666-55.04-55.466666-55.04a42.666667 42.666667 0 0 1 60.586666-60.586667l55.04 55.466667 55.04-55.466667a42.666667 42.666667 0 0 1 60.586667 60.586667L657.493333 512z" p-id="4874"></path></svg>