<svg t="1762011418000" class="icon" viewBox="0 0 1024 1024" version="1.1" xmlns="http://www.w3.org/2000/svg" p-id="6623" width="200" height="200"><path d="M448 288a32 32 0 0 1-32 32H160a32 32 0 1 1 0-64h256a32 32 0 0 1 32 32z m-32 416h-96v-96a32 32 0 1 0-64 0v96H160a32 32 0 0 0 0 64h96v96a32 32 0 1 0 64 0v-96h96a32 32 0 1 0 0-64z m192 0h256a32 32 0 1 0 0-64h-256a32 32 0 0 0 0 64z m256 64h-256a32 32 0 0 0 0 64h256a32 32 0 1 0 0-64z m-246.624-361.376a32.032 32.032 0 0 0 45.28 0L736 333.28l73.376 73.376a32 32 0 0 0 45.28-45.28L781.216 288l73.376-73.344a32 32 0 0 0-45.28-45.28L736 242.752l-73.376-73.376a32 32 0 1 0-45.28 45.28L690.784 288l-73.376 73.376a32.032 32.032 0 0 0 0 45.28z" p-id="6624" fill="#a686ba"></path></svg>