<svg t="1762099265899" class="icon" viewBox="0 0 1024 1024" version="1.1" xmlns="http://www.w3.org/2000/svg" p-id="3523" width="200" height="200"><path d="M163.41 300.78l187.98-133.47c12.1-12.1 31.73-12.1 43.83 0L620.6 283.68c12.1 12.1 31.73 12.1 43.83 0L825.5 177.11c19.53-19.53 52.91-5.7 52.91 21.92v531.15c0 8.22-3.27 16.1-9.08 21.92L688.74 878.19c-12.1 12.1-31.73 12.1-43.83 0L402.55 744.84c-12.1-12.1-31.73-12.1-43.83 0l-153.79 99.29c-19.57 19.57-53.04 5.62-52.91-22.06l2.31-499.5c0.04-8.17 3.3-16 9.08-21.77z" fill="#B3CE3E" p-id="3524"></path><path d="M382.18 599.51c-0.35-21.34-0.61-42.68-0.8-64.02-0.2-22.36-0.34-44.72-0.4-67.09-0.07-22.73-0.07-45.46 0-68.19 0.07-22.44 0.2-44.88 0.41-67.33 0.2-21.41 0.46-42.81 0.8-64.21 0.04-2.62 0.09-5.25 0.13-7.87 0.08-4.71-4.2-9.22-9-9s-8.91 3.95-9 9c-0.36 21.34-0.65 42.68-0.86 64.02-0.22 22.36-0.37 44.72-0.45 67.09s-0.1 45.46-0.05 68.19 0.16 44.89 0.35 67.33 0.42 42.81 0.75 64.21l0.12 7.87c0.08 4.7 4.08 9.22 9 9s9.08-3.96 9-9zM384.49 705.29c-0.32-12-0.3-24.01-0.45-36.01a635.3 635.3 0 0 0-0.12-7.54c-0.12-4.7-4.06-9.22-9-9s-9.12 3.96-9 9c0.3 12 0.28 24.01 0.44 36.01 0.03 2.51 0.06 5.02 0.13 7.54 0.13 4.7 4.05 9.22 9 9s9.14-3.96 9-9zM662.17 626.12c-0.11-15.68-0.18-31.36-0.21-47.05-0.04-16.63-0.03-33.27 0-49.9 0.04-17 0.11-34 0.21-51s0.24-33.57 0.42-50.36c0.17-15.84 0.38-31.68 0.64-47.52l0.09-5.5c0.08-4.71-4.2-9.22-9-9s-8.91 3.95-9 9c-0.27 15.68-0.48 31.36-0.66 47.04-0.19 16.63-0.34 33.26-0.45 49.9-0.12 17-0.19 34-0.24 51-0.04 16.79-0.05 33.57-0.03 50.36 0.03 15.84 0.08 31.68 0.18 47.53 0.01 1.83 0.02 3.66 0.04 5.5 0.03 4.71 4.12 9.22 9 9s9.04-3.96 9-9zM665.49 819.29a9524.373 9524.373 0 0 1-2.36-109.04c-0.08-4.7-4.09-9.22-9-9s-9.08 3.96-9 9a9291.926 9291.926 0 0 0 2.37 109.04c0.13 4.7 4.05 9.22 9 9s9.14-3.96 9-9z" p-id="3525"></path><path d="M836.55 406.97c0 24.94-29.54 67.6-49.98 94.13-9.64 12.51-28.53 12.51-38.17 0-20.44-26.53-49.98-69.18-49.98-94.13 0-38.14 30.92-69.06 69.06-69.06s69.06 30.92 69.06 69.06z" fill="#FFFFFF" p-id="3526"></path><path d="M767.49 414.37m-41.23 0a41.23 41.23 0 1 0 82.46 0 41.23 41.23 0 1 0-82.46 0Z" fill="#B3CE3E" p-id="3527"></path><path d="M739.42 526.91a29 13 0 1 0 58 0 29 13 0 1 0-58 0Z" p-id="3528"></path><path d="M303.42 623.05c0 19.86-23.52 53.83-39.8 74.95-7.67 9.96-22.72 9.96-30.39 0-16.28-21.13-39.8-55.09-39.8-74.95 0-30.37 24.62-55 55-55s55 24.62 55 55z" fill="#FFFFFF" p-id="3529"></path><path d="M248.42 628.94m-32.83 0a32.83 32.83 0 1 0 65.66 0 32.83 32.83 0 1 0-65.66 0Z" fill="#B3CE3E" p-id="3530"></path><path d="M226.07 718.56a23.09 10.35 0 1 0 46.18 0 23.09 10.35 0 1 0-46.18 0Z" p-id="3531"></path><path d="M278.86 704.28c-0.21 0-0.38-0.02-0.54-0.03a2.999 2.999 0 0 1-2.68-3.29 3 3 0 0 1 2.98-2.7h0.05c2.99-0.65 23.5-11.77 161.02-123.43 12.38-10.05 28.53-14.5 44.3-12.2 15.78 2.3 29.98 11.17 38.98 24.34l49.11 71.9c9.01 13.19 23.32 21.29 39.27 22.23 15.94 0.94 31.11-5.43 41.6-17.47l98.21-112.7a2.995 2.995 0 0 1 4.23-0.29 2.995 2.995 0 0 1 0.29 4.23l-98.21 112.7c-11.72 13.45-28.67 20.57-46.48 19.52-17.81-1.05-33.8-10.1-43.87-24.84l-49.11-71.9c-8.17-11.96-20.56-19.7-34.89-21.78-14.33-2.09-28.41 1.79-39.65 10.92-146.74 119.14-160.93 124.79-164.62 124.79z m-0.27-6z" p-id="3532"></path></svg>