<svg t="1762011773665" class="icon" viewBox="0 0 1024 1024" version="1.1" xmlns="http://www.w3.org/2000/svg" p-id="1110" width="200" height="200"><path d="M168.17 390.59s51.27-114.74 97.65-122.07c46.39-7.32 98.73 0 98.73 0s-10.85-92.77 16.01-100.09c26.85-7.32 168.45 2.44 183.1 21.97 14.65 19.53-19.53 109.86-19.53 109.86l85.45 7.32s19.53-117.18 46.39-117.18 129.39 14.65 139.16 41.5c9.77 26.85-31.74 85.45-31.74 85.45s80.56-12.21 117.18 14.65c36.62 26.85 0 364.96 0 364.96S878.6 822.71 724.79 822.71 561.22 671.35 561.22 671.35l21.97-217.28-119.63-12.21s-17.09 305.17-131.83 341.79c-114.74 36.62-163.57-19.01-163.57-19.01s-100.09-56.67-70.8-195.82c29.3-139.16 70.8-178.22 70.8-178.22z" fill="#B3CE3E" p-id="1111"></path><path d="M265.82 622.52m-107.42 0a107.42 107.42 0 1 0 214.84 0 107.42 107.42 0 1 0-214.84 0Z" fill="#FFFFFF" p-id="1112"></path><path d="M734.56 666.46m-107.42 0a107.42 107.42 0 1 0 214.84 0 107.42 107.42 0 1 0-214.84 0Z" fill="#FFFFFF" p-id="1113"></path><path d="M122.36 503.36c1.81-1.47 3.63-2.94 5.45-4.39 0.84-0.67 1.69-1.33 2.53-2l1.35-1.05c0.54-0.42 1.48-1.13-0.87 0.67 0.27-0.21 0.55-0.42 0.82-0.63a361.4 361.4 0 0 1 11.68-8.6c8.41-5.91 17.11-11.4 26.15-16.3 4.72-2.56 9.53-4.95 14.43-7.17 1.18-0.53 2.36-1.05 3.54-1.56 0.37-0.16 0.75-0.34 1.13-0.48 0.01 0-2.28 0.95-1.01 0.43 0.76-0.31 1.53-0.63 2.29-0.94 2.59-1.04 5.19-2.03 7.82-2.97a203.017 203.017 0 0 1 39.79-9.79c0.31-0.04 0.63-0.09 0.94-0.13-2.96 0.43-1.15 0.15-0.51 0.07 0.79-0.1 1.58-0.2 2.38-0.29 3.4-0.39 6.8-0.71 10.21-0.94 7-0.47 14.02-0.61 21.03-0.43a250.97 250.97 0 0 1 24.82 1.89c0.56 0.07 1.16 0.2 1.72 0.22-2.24-0.07-1.27-0.17-0.66-0.09 2.14 0.3 4.28 0.61 6.42 0.96 4 0.65 7.99 1.38 11.96 2.19 7.13 1.45 14.19 3.15 21.14 5.3 3.22 1 6.42 2.08 9.59 3.24 1.47 0.54 2.93 1.1 4.39 1.67 0.77 0.3 1.53 0.61 2.29 0.92 0.46 0.19 0.92 0.37 1.37 0.57l-1.24-0.52c0.3 0.13 0.61 0.26 0.91 0.39 12.32 5.31 24.1 11.9 35 19.71 1.27 0.91 2.52 1.83 3.76 2.77 0.47 0.36 1.91 1.5-0.26-0.21 0.26 0.2 0.52 0.4 0.77 0.6 0.77 0.61 1.54 1.22 2.3 1.84 2.6 2.11 5.13 4.29 7.6 6.55 4.85 4.44 9.44 9.17 13.71 14.17 1.05 1.23 2.08 2.48 3.09 3.74 0.39 0.49 2.22 2.9 0.39 0.47 0.58 0.77 1.18 1.54 1.75 2.32 1.92 2.6 3.75 5.26 5.5 7.99a137.94 137.94 0 0 1 9.5 17.48c0.34 0.74 0.66 1.49 0.99 2.23 0.59 1.33-0.3-0.72-0.34-0.8 0.2 0.44 0.37 0.9 0.56 1.36 0.61 1.51 1.2 3.04 1.75 4.57 1.61 4.41 6.19 7.87 11.07 6.29 4.33-1.4 8.01-6.34 6.29-11.07-9.75-26.73-27.08-50.12-49.14-68.02-22.17-17.99-48.16-31.06-75.83-38.15-16.18-4.15-32.9-6.76-49.55-7.98-14.27-1.04-28.64-0.86-42.86 0.79-25.35 2.94-49.67 10.14-72.54 21.48-18.94 9.39-36.26 21.52-52.79 34.64-1.78 1.42-3.56 2.84-5.32 4.28-1.68 1.37-2.64 4.29-2.64 6.36 0 2.21 0.98 4.84 2.64 6.36s3.97 2.74 6.36 2.64c2.52-0.11 4.42-1.05 6.36-2.64zM585.68 514.39c0.75-1.92-0.97 2.16-0.12 0.29 0.24-0.53 0.5-1.06 0.76-1.58 0.56-1.09 1.16-2.16 1.79-3.21a63.3 63.3 0 0 1 2.02-3.1c0.34-0.5 0.7-0.99 1.05-1.48 0.24-0.33 0.49-0.66 0.74-0.99 0.9-1.21-1.4 1.76-0.39 0.5 3.72-4.65 7.81-8.98 12.16-13.04 2.28-2.13 4.63-4.19 7.03-6.18 1.24-1.03 2.5-2.04 3.77-3.04 0.25-0.2 0.51-0.39 0.76-0.6-2.01 1.61-0.98 0.76-0.48 0.38 0.7-0.53 1.41-1.06 2.12-1.59 4.97-3.66 10.12-7.08 15.48-10.15 2.36-1.35 4.75-2.63 7.2-3.81 1.1-0.53 2.21-1.04 3.33-1.53 1.38-0.61-1.98 0.8-0.96 0.4 0.28-0.11 0.56-0.23 0.84-0.34 0.54-0.22 1.09-0.43 1.64-0.63 6.32-2.32 12.88-4.14 19.4-5.82 6.6-1.7 13.26-3.14 19.97-4.3 1.59-0.28 3.18-0.54 4.78-0.78 0.84-0.13 1.67-0.25 2.51-0.37 0.33-0.05 0.67-0.09 1-0.14 1.8-0.26-2.07 0.26-0.39 0.05 3.32-0.42 6.65-0.79 9.99-1.08 12.89-1.12 25.87-1.18 38.77-0.11 3.21 0.27 6.41 0.6 9.61 1.01 0.3 0.04 1.94 0.26 0.24 0.03s-0.07 0 0.24 0.03c0.79 0.11 1.59 0.23 2.38 0.35a217.122 217.122 0 0 1 23.44 4.87c6 1.59 11.94 3.44 17.78 5.54 3 1.08 5.98 2.22 8.93 3.42 0.6 0.25 3.36 1.45 0.5 0.2 0.66 0.29 1.32 0.56 1.98 0.85 1.54 0.67 3.07 1.36 4.6 2.06 11.58 5.35 22.7 11.7 33.23 18.89 2.71 1.85 5.38 3.75 8.01 5.71 0.66 0.49 1.32 0.99 1.97 1.49 0.26 0.2 0.52 0.4 0.79 0.6 1.15 0.88-0.56-0.43-0.65-0.5 1.4 1.16 2.87 2.25 4.28 3.4 5.07 4.12 9.97 8.44 14.71 12.94 9.97 9.47 19.12 19.73 27.59 30.56 0.77 0.98-1.4-1.83-0.27-0.35 0.22 0.28 0.43 0.56 0.65 0.85 0.54 0.71 1.07 1.42 1.6 2.13 1.07 1.43 2.12 2.87 3.17 4.32 1.41 1.95 2.98 3.48 5.38 4.14 2.15 0.59 5.02 0.33 6.94-0.91 3.78-2.44 6.17-8.23 3.23-12.31-16.97-23.57-36.97-44.53-60.29-61.89-21.41-15.94-45.55-28.26-71.07-36.12-25.53-7.87-52.62-11.13-79.29-9.77-14.27 0.72-28.52 2.7-42.47 5.79-12.95 2.86-26.14 6.32-38.07 12.23-11.65 5.77-22.4 13.46-32.34 21.8-9.51 7.99-18.73 17.19-25.07 27.97-1.53 2.6-2.76 5.34-3.86 8.15-0.8 2.04-0.15 5.12 0.91 6.94 1.09 1.87 3.23 3.65 5.38 4.14 2.3 0.52 4.89 0.41 6.94-0.91s3.23-3.08 4.14-5.38z" p-id="1114"></path></svg>