<svg t="1762041317233" class="icon" viewBox="0 0 1024 1024" version="1.1" xmlns="http://www.w3.org/2000/svg" p-id="1276" width="200" height="200"><path d="M128.21 488.35s29.63-398.41 405-368.78c375.36 29.63 368.78 306.22 368.78 306.22s3.29 309.51-75.73 375.36c-79.02 65.85-200.85 92.19-345.73 85.61-98.89-4.5-211.59-81.09-273.17-129.27-29.38-22.98-48.75-56.39-54.03-93.31l-25.12-175.83z" fill="#B3CE3E" p-id="1277"></path><path d="M757.85 411.42c1.03 122.53 0.15 238.58-198.5 246.82-109.65 4.55-267.47-28.17-287.23-197.89C248.82 260.23 471.93 234.01 512 235c50.79 1.25 244.47 11.49 245.85 176.42z" fill="#FFFFFF" p-id="1278"></path><path d="M152 577.7c24.02 42.76 57.61 79.2 96.71 108.58 39.12 29.4 83.78 51.3 130.4 65.96 52.05 16.37 106.87 23.03 161.33 22.27 60.34-0.84 120.42-10.66 178.71-25.94 29.01-7.6 57.64-16.59 85.89-26.62 22.26-7.9 46.68-17.17 61.9-36.24 4.19-5.25 7.29-10.68 9.88-16.85 1.88-4.48-2.03-9.9-6.29-11.07-5.19-1.43-9.18 1.78-11.07 6.29-3.46 8.24-11.16 16.31-18.87 21.64-9.28 6.41-19.5 11.08-29.45 14.9-26.57 10.2-53.93 18.74-81.32 26.41C673.87 742.7 616.4 753.49 558.28 756c-53.43 2.31-107.23-2.27-158.87-16.53-45.44-12.55-88.22-31.78-127.3-58.47-37.68-25.73-71.33-59.05-95.81-97.7-3.05-4.81-5.96-9.71-8.75-14.68-5.67-10.1-21.23-1.04-15.54 9.08zM415.25 354.92c51.16 6.6 116.36 19.87 140 24.82a23.323 23.323 0 0 1 14.35 9.5l67.78 97.28c12.21 17.53-3.58 40.9-24.4 36.11l-120.35-27.68a23.35 23.35 0 0 1-12.04-7.04l-85.62-94.11c-14.64-16.09-1.29-41.67 20.29-38.88z" p-id="1279"></path></svg>