<svg t="1762101339653" class="icon" viewBox="0 0 1024 1024" version="1.1" xmlns="http://www.w3.org/2000/svg" p-id="3399" width="200" height="200"><path d="M279.48 867.01l-10.3-97.02a22.688 22.688 0 0 0-20.17-20.17l-97.02-10.3c-15.08-1.6-30.93-23.97-22.76-32.13l369.14-369.14c8.86-8.86 23.23-8.86 32.09 0l150.3 150.3c8.86 8.86 8.86 23.23 0 32.09L311.62 889.78c-8.17 8.17-30.53-7.68-32.13-22.76z" fill="#CFF09E" p-id="3400"></path><path d="M305.68 911.97c-3.9 0-7.96-0.71-12.03-2.15-14.98-5.3-32.01-21.36-34.07-40.7l-10.3-97.02a2.701 2.701 0 0 0-2.39-2.39l-97.02-10.3c-19.34-2.05-35.41-19.08-40.7-34.07-4.28-12.11-2.07-24.11 5.91-32.1L484.23 324.1c8.06-8.06 18.78-12.5 30.19-12.5s22.12 4.44 30.19 12.5l150.3 150.3c16.64 16.65 16.64 43.73 0 60.37L325.77 903.91c-5.3 5.3-12.37 8.05-20.07 8.05z m-6.34-47.25c0.41 1.38 2.12 3.44 3.98 5.06l363.29-363.29a2.686 2.686 0 0 0 0-3.8l-150.29-150.3c-0.65-0.65-1.39-0.79-1.9-0.79s-1.25 0.14-1.9 0.79L149.23 715.68c1.62 1.86 3.68 3.57 5.06 3.98l96.84 10.28c19.88 2.11 35.84 18.07 37.95 37.95l10.28 96.84z m-0.02-0.08z" fill="#3B8686" p-id="3401"></path><path d="M875.01 739.52l-97.02 10.3a22.688 22.688 0 0 0-20.17 20.17l-10.3 97.02c-1.6 15.08-23.97 30.93-32.13 22.76L346.25 520.63c-8.86-8.86-8.86-23.23 0-32.09l150.3-150.3c8.86-8.86 23.23-8.86 32.09 0l369.14 369.14c8.17 8.17-7.68 30.53-22.76 32.13z" fill="#CFF09E" p-id="3402"></path><path d="M721.32 911.97c-7.7 0-14.77-2.75-20.07-8.05L332.11 534.78c-16.64-16.65-16.64-43.73 0-60.37l150.3-150.3c8.06-8.06 18.78-12.5 30.19-12.5s22.12 4.44 30.19 12.5l369.14 369.14c7.98 7.98 10.19 19.98 5.91 32.1-5.3 14.98-21.36 32.01-40.7 34.07l-2.11-19.89 2.11 19.89-97.02 10.3a2.701 2.701 0 0 0-2.39 2.39l-10.3 97.02c-2.05 19.34-19.08 35.41-34.07 40.7-4.07 1.44-8.13 2.15-12.03 2.15zM512.59 351.6c-0.51 0-1.25 0.14-1.9 0.79l-150.3 150.3a2.686 2.686 0 0 0 0 3.8l363.29 363.29c1.86-1.62 3.57-3.68 3.98-5.06l10.28-96.84c2.11-19.88 18.07-35.84 37.95-37.95l96.84-10.28c1.38-0.41 3.44-2.12 5.06-3.98L514.5 352.38a2.64 2.64 0 0 0-1.9-0.79z m215.09 513.04z" fill="#3B8686" p-id="3403"></path><path d="M513.25 392.86m-282.01 0a282.01 282.01 0 1 0 564.02 0 282.01 282.01 0 1 0-564.02 0Z" fill="#FBD874" p-id="3404"></path><path d="M513.25 694.87c-80.67 0-156.51-31.41-213.55-88.46-57.04-57.04-88.46-132.88-88.46-213.55s31.41-156.51 88.46-213.55c57.04-57.04 132.88-88.46 213.55-88.46s156.51 31.41 213.55 88.46 88.46 132.88 88.46 213.55-31.41 156.51-88.46 213.55c-57.04 57.04-132.88 88.46-213.55 88.46z m0-564.01c-69.98 0-135.78 27.25-185.27 76.74-49.49 49.49-76.74 115.28-76.74 185.27s27.25 135.78 76.74 185.27 115.28 76.74 185.27 76.74 135.78-27.25 185.27-76.74 76.74-115.28 76.74-185.27-27.25-135.78-76.74-185.27c-49.49-49.49-115.28-76.74-185.27-76.74z" fill="#3B8686" p-id="3405"></path><path d="M513.25 392.86m-203.25 0a203.25 203.25 0 1 0 406.5 0 203.25 203.25 0 1 0-406.5 0Z" fill="#CFF09E" p-id="3406"></path><path d="M513.25 616.12c-59.63 0-115.7-23.22-157.86-65.39C313.22 508.56 290 452.5 290 392.87s23.22-115.7 65.39-157.86c42.17-42.17 98.23-65.39 157.86-65.39s115.7 23.22 157.86 65.39c42.17 42.17 65.39 98.23 65.39 157.86s-23.22 115.7-65.39 157.86c-42.17 42.17-98.23 65.39-157.86 65.39z m0-406.51C412.2 209.61 330 291.82 330 392.86s82.21 183.25 183.25 183.25S696.5 493.9 696.5 392.86s-82.21-183.25-183.25-183.25z" fill="#3B8686" p-id="3407"></path><path d="M527.99 208.41l33.27 102.41c2.21 6.8 8.55 11.41 15.7 11.41h107.68c15.99 0 22.64 20.46 9.7 29.86l-87.11 63.29a16.507 16.507 0 0 0-6 18.46l33.27 102.41c4.94 15.21-12.47 27.86-25.4 18.46l-87.11-63.29c-5.79-4.2-13.62-4.2-19.41 0l-87.11 63.29c-12.94 9.4-30.35-3.25-25.4-18.46l33.27-102.41c2.21-6.8-0.21-14.25-6-18.46l-87.11-63.29c-12.94-9.4-6.29-29.86 9.7-29.86h107.68c7.15 0 13.49-4.61 15.7-11.41l33.27-102.41c4.94-15.21 26.46-15.21 31.4 0z" fill="#FBD874" p-id="3408"></path><path d="M405.77 577.88c-7.52 0-15.04-2.33-21.46-6.99-12.84-9.33-18.17-25.73-13.26-40.82l32.49-100-85.06-61.8c-12.84-9.33-18.17-25.73-13.26-40.82a36.42 36.42 0 0 1 34.72-25.23h105.14l32.49-100c4.9-15.09 18.86-25.23 34.72-25.23s29.82 10.14 34.72 25.23l32.49 100h105.14a36.41 36.41 0 0 1 34.72 25.23c4.9 15.09-0.43 31.49-13.26 40.82l-85.06 61.8 32.49 100c4.9 15.09-0.43 31.49-13.26 40.82-12.84 9.33-30.08 9.32-42.92 0l-85.06-61.8-85.06 61.8a36.474 36.474 0 0 1-21.46 6.99z m106.52-109.64c7.52 0 15.04 2.33 21.46 6.99l78.42 56.98-29.95-92.19c-4.9-15.09 0.43-31.49 13.26-40.82l78.42-56.98h-96.93a36.41 36.41 0 0 1-34.72-25.23L512.3 224.8l-29.95 92.19a36.42 36.42 0 0 1-34.72 25.23H350.7l78.42 56.98c12.83 9.33 18.17 25.73 13.26 40.82l-29.95 92.19 78.42-56.98a36.474 36.474 0 0 1 21.46-6.99z" fill="#3B8686" p-id="3409"></path></svg>