<svg t="1762101424181" class="icon" viewBox="0 0 1024 1024" version="1.1" xmlns="http://www.w3.org/2000/svg" p-id="3735" width="200" height="200"><path d="M357.49 465.38h481.09c45.53 0 82.49 36.96 82.49 82.49v238.85c0 45.53-36.96 82.49-82.49 82.49H275V547.87c0-45.53 36.96-82.49 82.49-82.49z" fill="#FBD874" p-id="3736"></path><path d="M838.58 889.21H255V547.87c0-56.51 45.97-102.49 102.49-102.49h481.09c56.51 0 102.49 45.97 102.49 102.49v238.85c0 56.51-45.98 102.49-102.49 102.49z m-543.58-40h543.57c34.45 0 62.49-28.03 62.49-62.49V547.87c0-34.45-28.03-62.49-62.49-62.49H357.48c-34.45 0-62.49 28.03-62.49 62.49v301.34z" fill="#3B8686" p-id="3737"></path><path d="M201.99 184h372.18c49.11 0 88.99 39.87 88.99 88.99V868H201.99c-49.11 0-88.99-39.87-88.99-88.99V272.98c0-49.11 39.87-88.99 88.99-88.99z" fill="#CFF09E" p-id="3738"></path><path d="M683.15 888H201.99C141.89 888 93 839.11 93 779.01V272.98c0-60.1 48.89-108.99 108.99-108.99h372.18c60.1 0 108.99 48.89 108.99 108.99v615.01zM201.99 204c-38.04 0-68.99 30.95-68.99 68.99v506.03c0 38.04 30.95 68.99 68.99 68.99h441.16V272.99c0-38.04-30.95-68.99-68.99-68.99H201.99z" fill="#3B8686" p-id="3739"></path><path d="M227.14 353.63c-11.05 0-20-8.95-20-20s8.95-20 20-20H556c11.05 0 20 8.95 20 20s-8.95 20-20 20H227.14zM227.14 464.63c-11.05 0-20-8.95-20-20s8.95-20 20-20H556c11.05 0 20 8.95 20 20s-8.95 20-20 20H227.14zM227.14 575.63c-11.05 0-20-8.95-20-20s8.95-20 20-20h180.74c11.05 0 20 8.95 20 20s-8.95 20-20 20H227.14z" fill="#3B8686" p-id="3740"></path></svg>