<svg t="1762011487300" class="icon" viewBox="0 0 1024 1024" version="1.1" xmlns="http://www.w3.org/2000/svg" p-id="7694" width="200" height="200"><path d="M852.48 0H240.267636a136.285091 136.285091 0 0 0-136.145454 136.145455v262.050909h-40.541091a35.84 35.84 0 1 0 0 71.68h40.541091v82.152727h-40.541091a35.84 35.84 0 0 0 0 71.68h40.541091v264.192a136.285091 136.285091 0 0 0 136.145454 136.145454h612.212364a136.285091 136.285091 0 0 0 136.145455-136.145454V136.145455A136.285091 136.285091 0 0 0 852.48 0z m45.381818 887.901091a45.428364 45.428364 0 0 1-45.381818 45.381818H240.267636a45.428364 45.428364 0 0 1-45.381818-45.381818V623.709091h40.541091a35.84 35.84 0 1 0 0-71.68h-40.541091v-82.152727h40.541091a35.84 35.84 0 0 0 0-71.68h-40.541091v-262.050909a45.428364 45.428364 0 0 1 45.381818-45.381819h612.212364a45.428364 45.428364 0 0 1 45.381818 45.381819v751.755636z" p-id="7695" fill="#17abe3"></path><path d="M705.815273 352.488727a42.309818 42.309818 0 0 0-59.810909 0l-99.653819 99.653818-99.653818-99.653818a42.309818 42.309818 0 0 0-59.810909 59.810909l99.653818 99.653819-99.653818 99.653818a42.309818 42.309818 0 0 0 59.810909 59.810909l99.653818-99.653818 99.653819 99.653818a42.309818 42.309818 0 0 0 59.810909-59.810909l-99.607273-99.653818 99.653818-99.653819a42.309818 42.309818 0 0 0-0.046545-59.810909z" p-id="7696" fill="#17abe3"></path></svg>